<?xml version="1.0" standalone="no"?>
<!DOCTYPE svg PUBLIC "-//W3C//DTD SVG 20010904//EN"
 "http://www.w3.org/TR/2001/REC-SVG-20010904/DTD/svg10.dtd">
<svg version="1.0" xmlns="http://www.w3.org/2000/svg"
 width="655.000000pt" height="655.000000pt" viewBox="0 0 655.000000 655.000000"
 preserveAspectRatio="xMidYMid meet">
<metadata>
Created by potrace 1.11, written by Peter Selinger 2001-2013
</metadata>
<g transform="translate(0.000000,655.000000) scale(0.100000,-0.100000)"
fill="#000000" stroke="none">
<path d="M3585 6435 c-105 -15 -215 -39 -294 -62 -31 -9 -60 -18 -66 -19 -68
-13 -351 -142 -482 -218 -126 -74 -301 -213 -402 -319 -105 -109 -246 -297
-239 -317 2 -5 64 -45 138 -89 l135 -78 35 51 c135 201 350 391 585 516 70 38
254 116 295 126 8 2 49 13 90 24 94 26 190 47 255 54 28 4 66 9 85 11 46 6
198 7 230 1 14 -3 47 -7 75 -11 239 -30 548 -144 752 -277 278 -181 461 -390
608 -693 93 -192 158 -399 191 -605 3 -19 7 -46 9 -59 24 -140 24 -542 1 -579
-2 -4 -7 -25 -10 -47 -32 -202 -160 -564 -326 -925 -63 -138 -319 -647 -412
-820 -20 -36 -55 -101 -78 -145 -223 -418 -554 -978 -827 -1398 l-70 -109 -34
49 c-40 56 -204 304 -273 413 -26 41 -61 94 -77 118 -16 23 -29 45 -29 47 0 3
-21 37 -47 77 -39 61 -132 215 -213 353 -42 70 -215 375 -245 430 -167 306
-228 423 -327 621 -63 126 -122 249 -133 274 -27 66 -31 69 -68 60 -79 -19
-282 -72 -285 -75 -6 -6 258 -546 368 -749 22 -42 59 -111 81 -154 51 -94 179
-324 208 -372 11 -19 24 -42 28 -50 6 -12 169 -288 210 -355 7 -11 16 -27 20
-35 4 -8 47 -77 95 -153 48 -76 88 -143 88 -148 0 -5 5 -9 10 -9 6 0 10 -5 10
-10 0 -12 316 -490 429 -649 38 -54 81 -105 95 -114 35 -24 147 -23 183 0 71
47 650 977 985 1583 249 449 640 1221 662 1305 4 12 30 74 58 135 11 25 21 50
23 55 1 6 6 19 10 30 73 180 158 444 181 560 2 11 8 43 14 70 25 125 29 178
29 450 0 271 -5 334 -33 480 -3 17 -8 42 -11 57 -12 61 -76 272 -110 359 -72
188 -203 415 -330 574 -301 378 -753 641 -1280 746 -137 27 -431 34 -570 14z"/>
<path d="M650 5570 c-12 -7 -15 -88 -17 -552 -2 -662 -5 -1541 -4 -1585 l1
-33 185 0 185 0 0 796 c0 884 -3 842 66 885 32 19 49 21 213 21 98 0 196 -5
219 -11 53 -15 136 -81 172 -137 104 -165 32 -397 -148 -477 -39 -17 -71 -21
-182 -23 -74 -2 -141 -3 -147 -3 -10 -1 -13 -51 -13 -216 0 -165 3 -215 13
-216 6 -1 134 -2 282 -3 267 -2 271 -2 325 -28 113 -53 187 -161 194 -282 7
-125 -39 -234 -130 -307 -80 -64 -75 -64 -469 -69 l-360 -5 0 -204 c0 -148 3
-208 12 -216 9 -10 102 -12 380 -11 418 2 448 6 591 78 158 79 280 205 357
368 95 200 95 461 1 665 -63 137 -184 279 -287 338 -21 12 -38 24 -36 27 27
45 73 160 89 219 21 82 28 240 15 326 -50 317 -299 582 -606 645 -73 15 -146
18 -486 19 -231 0 -406 -3 -415 -9z"/>
<path d="M3614 5540 c-489 -85 -888 -438 -1034 -914 -44 -145 -54 -220 -55
-386 0 -192 8 -260 51 -407 26 -91 96 -248 146 -328 185 -295 492 -514 818
-586 211 -45 389 -44 592 6 367 90 664 325 851 675 70 131 114 275 142 460 8
53 8 284 1 320 -3 14 -8 46 -11 71 -3 25 -16 84 -29 130 -142 513 -562 889
-1076 964 -128 18 -274 17 -396 -5z m355 -445 c25 -4 81 -18 125 -32 371 -116
624 -471 615 -861 -1 -47 -6 -102 -10 -121 -4 -20 -10 -48 -12 -62 -3 -14 -12
-47 -21 -74 -96 -282 -324 -497 -614 -577 -105 -30 -333 -31 -437 -4 -328 87
-583 349 -652 670 -16 77 -22 239 -10 325 9 70 58 213 94 280 137 247 368 411
641 456 78 12 200 12 281 0z"/>
</g>
</svg>
